Coordinates
version=1
nRows=16
nColumns=40
inDegrees=yes

Units are S.I. units (second, meters, Newtons, ...)
Angles are in degrees.

endheader
time	pelvis_tilt	pelvis_list	pelvis_rotation	pelvis_tx	pelvis_ty	pelvis_tz	hip_flexion_r	hip_adduction_r	hip_rotation_r	knee_angle_r	knee_angle_r_beta	ankle_angle_r	subtalar_angle_r	mtp_angle_r	hip_flexion_l	hip_adduction_l	hip_rotation_l	knee_angle_l	knee_angle_l_beta	ankle_angle_l	subtalar_angle_l	mtp_angle_l	lumbar_extension	lumbar_bending	lumbar_rotation	arm_flex_r	arm_add_r	arm_rot_r	elbow_flex_r	pro_sup_r	wrist_flex_r	wrist_dev_r	arm_flex_l	arm_add_l	arm_rot_l	elbow_flex_l	pro_sup_l	wrist_flex_l	wrist_dev_l
      1.97128571	     -6.18159415	     -4.05163467	     -2.96845722	      0.92931580	      0.92518368	      0.46063202	     31.56111225	     -2.38574395	    -10.62382837	     24.78033650	     24.78033650	      3.98512222	     -7.27205796	      2.88713273	      3.06631330	     -3.84792198	    -10.54433698	     13.61316458	     13.61316458	     17.91733184	     -7.03123532	     -0.96455195	     -9.14953301	      6.39306753	      3.47217215	    -15.09287569	    -11.74334557	     -9.54197397	     22.44491783	     46.53140296	      0.00000000	      0.00000000	     20.79563419	    -17.68853540	     -9.67574541	     83.03815798	     47.39135708	      0.00000000	      0.00000000
      1.98257143	     -6.24240227	     -3.97579164	     -2.95222207	      0.93023027	      0.92362259	      0.46220820	     30.60799366	     -2.11861379	    -11.34416743	     21.90770262	     21.90770262	      3.78346045	     -5.82841554	      3.58823883	      2.52964901	     -3.85302487	    -10.58960569	     13.52847752	     13.52847752	     18.31052204	     -6.85370210	     -1.15379349	     -8.87111636	      6.25571358	      3.42504810	    -15.31591775	    -11.66192186	     -9.52156464	     22.44296372	     46.52936762	      0.00000000	      0.00000000	     20.80979055	    -17.66394130	     -9.52686428	     83.61971044	     47.40072639	      0.00000000	      0.00000000
      1.99385714	     -6.15322034	     -3.92116424	     -2.90505083	      0.93143178	      0.92221919	      0.46380830	     29.55836996	     -1.91236636	    -12.22951514	     19.61381695	     19.61381695	      3.56735354	     -4.27119876	      4.19994145	      1.80964673	     -3.88350643	    -10.66879404	     13.44697282	     13.44697282	     18.74905157	     -6.57902489	     -1.30687244	     -8.74849920	      6.16106383	      3.38858428	    -15.45934843	    -11.63297156	     -9.48980796	     22.43107724	     46.52831646	      0.00000000	      0.00000000	     20.71192992	    -17.60203145	     -9.28814902	     84.22799103	     47.40639484	      0.00000000	      0.00000000
      2.00514286	     -6.08808224	     -3.89294603	     -2.84455816	      0.93279210	      0.92083149	      0.46548854	     28.65005442	     -1.72132363	    -13.08147209	     17.94357111	     17.94357111	      3.29743981	     -2.93274056	      4.60061627	      1.13356826	     -3.95719746	    -10.74134387	     13.42113875	     13.42113875	     19.20431697	     -6.30844609	     -1.37549893	     -8.56607949	      6.11220778	      3.36247215	    -15.43466708	    -11.59330741	     -9.43359808	     22.42713612	     46.52700049	      0.00000000	      0.00000000	     20.51710678	    -17.52881022	     -8.99947978	     84.72490240	     47.40756104	      0.00000000	      0.00000000
      2.01642857	     -6.02835577	     -3.88118740	     -2.77937144	      0.93419932	      0.91952655	      0.46729409	     27.89589706	     -1.55253002	    -13.81831253	     16.90691665	     16.90691665	      2.95082525	     -1.95897585	      4.63318131	      0.53419770	     -4.07698051	    -10.77167699	     13.54172249	     13.54172249	     19.70925893	     -6.06955308	     -1.33192068	     -8.37395044	      6.06321926	      3.31692813	    -15.25148697	    -11.55973617	     -9.34247425	     22.39295376	     46.52674240	      0.00000000	      0.00000000	     20.22283893	    -17.42473648	     -8.66942697	     85.07077542	     47.40531248	      0.00000000	      0.00000000
      2.02771429	     -5.99975601	     -3.93431452	     -2.69759588	      0.93558549	      0.91834539	      0.46919581	     27.25663248	     -1.34418177	    -14.39560251	     16.31618373	     16.31618373	      2.51706158	     -1.44642270	      4.25260417	      0.07651754	     -4.29711544	    -10.76475753	     13.86013673	     13.86013673	     20.20461932	     -5.97368546	     -1.18075771	     -8.12372901	      6.09708168	      3.31724638	    -14.87940131	    -11.52580299	     -9.22446851	     22.33414543	     46.52777451	      0.00000000	      0.00000000	     19.88063234	    -17.27604901	     -8.35041836	     85.21900920	     47.40015091	      0.00000000	      0.00000000
      2.03900000	     -5.96926166	     -3.93504381	     -2.64891151	      0.93693259	      0.91737131	      0.47118545	     26.87482837	     -1.22911068	    -14.59847056	     16.43721595	     16.43721595	      2.33365361	     -1.48497392	      4.10156926	     -0.37431762	     -4.45188424	    -10.66814180	     14.15960687	     14.15960687	     20.48370725	     -6.06501432	     -1.21880601	     -7.89293608	      6.07693748	      3.40156934	    -14.42257555	    -11.44564417	     -9.18058937	     22.44398845	     46.52450648	      0.00000000	      0.00000000	     19.48069322	    -16.90751791	     -8.12699109	     85.12866372	     47.38447629	      0.00000000	      0.00000000
      2.05028571	     -5.88180003	     -4.08012317	     -2.53078123	      0.93832879	      0.91662900	      0.47336511	     26.19060551	     -0.92376825	    -14.78368541	     16.17644228	     16.17644228	      0.50957451	     -2.19599430	     -0.92997458	     -0.44448473	     -4.93566751	    -10.83394514	     15.41388681	     15.41388681	     21.72940096	     -5.56246116	      0.46476057	     -7.70077486	      6.19644481	      3.23393137	    -13.31427271	    -11.47991743	     -8.51725717	     21.25427544	     46.56544365	      0.00000000	      0.00000000	     18.93868000	    -16.95657182	     -7.60592657	     85.03066754	     47.42325976	      0.00000000	      0.00000000
      2.06157143	     -5.71032449	     -4.24992438	     -2.44341944	      0.93962348	      0.91641095	      0.47548789	     25.72310091	     -0.69987842	    -14.86862457	     16.74229852	     16.74229852	      0.62746287	     -2.51672337	     -1.22328824	     -0.73996134	     -5.33759323	    -10.66016791	     16.26716584	     16.26716584	     21.88168162	     -6.03537938	      0.35022668	     -7.70746625	      6.34130407	      3.37836974	    -12.61204277	    -11.49695952	     -8.48353611	     21.48308773	     46.56217239	      0.00000000	      0.00000000	     18.35140518	    -16.46849043	     -7.39962802	     84.74961105	     47.40645220	      0.00000000	      0.00000000
      2.07285714	     -5.60021191	     -4.42484457	     -2.35734742	      0.94067139	      0.91631118	      0.47768677	     25.41454744	     -0.47553766	    -14.81252070	     17.50904599	     17.50904599	      0.80000928	     -3.10475394	     -1.72997216	     -0.59466489	     -5.82457905	    -10.32996745	     17.79528309	     17.79528309	     21.96377938	     -6.70934658	      0.14217016	     -7.67008405	      6.55862343	      3.44283580	    -11.76946860	    -11.53871239	     -8.43100202	     21.67058806	     46.56200971	      0.00000000	      0.00000000	     17.83519265	    -16.13463986	     -7.24694093	     84.29372133	     47.39262474	      0.00000000	      0.00000000
      2.08414286	     -5.44962743	     -4.57935875	     -2.26809689	      0.94166990	      0.91661521	      0.47995820	     25.02834574	     -0.25163679	    -14.63999142	     18.22239391	     18.22239391	      1.09051752	     -3.71524459	     -2.22091032	     -0.33879921	     -6.32431449	    -10.05507018	     19.56866022	     19.56866022	     21.88761045	     -7.44763749	     -0.11991247	     -7.69958633	      6.70320227	      3.54682285	    -10.73609415	    -11.52639783	     -8.36486089	     21.88133170	     46.56118904	      0.00000000	      0.00000000	     17.15844335	    -15.68941444	     -7.04047250	     83.70334048	     47.37118542	      0.00000000	      0.00000000
      2.09542857	     -5.41677687	     -4.75204510	     -2.13792636	      0.94242530	      0.91696914	      0.48229498	     24.74903434	      0.01500473	    -14.39069637	     18.85329604	     18.85329604	      1.37718806	     -4.49597268	     -2.71096830	      0.37521850	     -6.92116572	     -9.68312160	     21.89217394	     21.89217394	     21.63217720	     -8.34293346	     -0.59491982	     -7.59619798	      6.83849809	      3.57106613	     -9.55022385	    -11.46259184	     -8.26911098	     22.04037496	     46.56307148	      0.00000000	      0.00000000	     16.43695223	    -15.28142720	     -6.88241957	     82.84911195	     47.35070898	      0.00000000	      0.00000000
      2.10671429	     -5.21596670	     -4.92609450	     -1.99970579	      0.94316770	      0.91781176	      0.48461676	     24.19978207	      0.29513296	    -14.20518493	     19.31958696	     19.31958696	      1.83134210	     -5.08904159	     -3.08192188	      1.07900893	     -7.54159464	     -9.31029514	     24.48814213	     24.48814213	     21.09220184	     -9.30984143	     -1.17656314	     -7.74064738	      6.99016888	      3.63218896	     -8.25352669	    -11.47896119	     -8.18705829	     22.26513489	     46.56387193	      0.00000000	      0.00000000	     15.69707516	    -14.83973333	     -6.72412048	     81.93534520	     47.32784444	      0.00000000	      0.00000000
      2.11800000	     -5.12465678	     -5.08128057	     -1.83460288	      0.94378945	      0.91867216	      0.48693760	     23.67025593	      0.62624864	    -13.82539747	     19.52738736	     19.52738736	      2.14162024	     -5.95731315	     -3.52283091	      2.08672984	     -8.17448122	     -8.87991703	     27.28924079	     27.28924079	     19.62304420	    -10.69091508	     -3.31130023	     -7.66540292	      7.10284031	      3.55821159	     -6.66178563	    -11.45512631	     -7.87954201	     21.93254070	     46.58927228	      0.00000000	      0.00000000	     15.01557627	    -14.18970483	     -6.88844206	     80.12510353	     47.34166841	      0.00000000	      0.00000000
      2.12928571	     -4.96479128	     -5.22890292	     -1.61966431	      0.94426002	      0.91970893	      0.48915462	     23.00182005	      0.86496686	    -13.91633703	     19.62624104	     19.62624104	      2.67167596	     -6.05454891	     -3.70965591	      3.30431828	     -8.82393765	     -8.33034138	     30.55401312	     30.55401312	     18.30190574	    -11.92982491	     -4.47060853	     -7.78966150	      7.20022440	      3.50580820	     -5.19711825	    -11.46483022	     -7.80545598	     22.45534158	     46.58161203	      0.00000000	      0.00000000	     14.08496124	    -13.81444288	     -6.70734224	     78.96723774	     47.31926333	      0.00000000	      0.00000000
      2.14057143	     -4.67100086	     -5.43911472	     -1.37427356	      0.94465917	      0.92094542	      0.49136136	     22.11205225	      1.17419538	    -14.10667124	     19.55834629	     19.55834629	      3.17527478	     -6.02002634	     -3.84467268	      4.58735363	     -9.57634076	     -7.76610384	     34.14155674	     34.14155674	     16.84995908	    -13.05603805	     -5.16374632	     -8.08763538	      7.33733526	      3.58019529	     -3.71509265	    -11.50891531	     -7.76220211	     23.05622526	     46.56841227	      0.00000000	      0.00000000	     13.27134770	    -13.34214851	     -6.48935161	     77.93931952	     47.28782050	      0.00000000	      0.00000000
